<?xml version="1.0" encoding="UTF-8"?>
<svg xmlns="http://www.w3.org/2000/svg" xmlns:xlink="http://www.w3.org/1999/xlink" width="150px" height="px" viewBox="0 0 150 122" version="1.1">
<g id="surface1">
<path style=" stroke:none;fill-rule:nonzero;fill:rgb(0%,0%,0%);fill-opacity:1;" d="M 139.066406 40.472656 L 138.214844 40.472656 C 136.421875 40.402344 134.90625 41.792969 134.820312 43.589844 L 134.820312 46.003906 C 134.90625 47.800781 136.421875 49.191406 138.214844 49.117188 L 139.066406 49.117188 C 140.859375 49.191406 142.375 47.800781 142.457031 46.003906 L 142.457031 43.589844 C 142.375 41.792969 140.859375 40.402344 139.066406 40.472656 Z M 139.066406 40.472656 "/>
<path style=" stroke:none;fill-rule:nonzero;fill:rgb(0%,0%,0%);fill-opacity:1;" d="M 139.066406 54.03125 L 138.214844 54.03125 C 136.421875 53.957031 134.90625 55.351562 134.820312 57.148438 L 134.820312 92.160156 C 134.90625 93.957031 136.421875 95.347656 138.214844 95.273438 L 139.066406 95.273438 C 140.859375 95.347656 142.375 93.957031 142.457031 92.160156 L 142.457031 57.148438 C 142.375 55.351562 140.859375 53.957031 139.066406 54.03125 Z M 139.066406 54.03125 "/>
<path style=" stroke:none;fill-rule:nonzero;fill:rgb(0%,0%,0%);fill-opacity:1;" d="M 41.28125 57.148438 L 41.28125 92.160156 C 41.28125 92.363281 41.257812 92.570312 41.214844 92.769531 C 39.132812 93.367188 37.121094 94.058594 35.222656 94.792969 C 34.265625 94.261719 33.664062 93.253906 33.644531 92.160156 L 33.644531 57.148438 C 33.730469 55.351562 35.242188 53.960938 37.035156 54.03125 L 37.886719 54.03125 C 39.679688 53.957031 41.195312 55.351562 41.28125 57.148438 Z M 41.28125 57.148438 "/>
<path style=" stroke:none;fill-rule:nonzero;fill:rgb(0%,0%,0%);fill-opacity:1;" d="M 2.84375 95.234375 L 23.472656 95.234375 C 25.074219 95.234375 26.234375 93.839844 26.234375 91.914062 L 26.234375 89.957031 C 26.234375 88.03125 25.074219 86.632812 23.472656 86.632812 L 10.898438 86.632812 C 10.6875 86.632812 10.492188 86.515625 10.394531 86.332031 C 10.292969 86.144531 10.304688 85.917969 10.417969 85.742188 L 25.6875 46.441406 C 26.105469 45.414062 26.226562 44.285156 26.03125 43.191406 C 25.699219 41.507812 24.714844 40.503906 23.390625 40.503906 L 2.761719 40.503906 C 1.160156 40.503906 0 41.902344 0 43.824219 L 0 45.785156 C 0 47.707031 1.160156 49.105469 2.761719 49.105469 L 13.996094 49.105469 C 14.535156 49.105469 15.039062 49.371094 15.339844 49.820312 C 15.644531 50.265625 15.707031 50.832031 15.507812 51.335938 L 0.558594 89.292969 C 0.128906 90.324219 0.0078125 91.453125 0.203125 92.546875 C 0.53125 94.230469 1.519531 95.234375 2.84375 95.234375 Z M 2.84375 95.234375 "/>
<path style=" stroke:none;fill-rule:nonzero;fill:rgb(0%,0%,0%);fill-opacity:1;" d="M 147.949219 92.828125 L 147.949219 92.792969 C 148.246094 92.734375 148.46875 92.480469 148.484375 92.175781 C 148.496094 91.957031 148.394531 91.75 148.21875 91.625 C 147.957031 91.457031 147.644531 91.382812 147.335938 91.417969 C 147.003906 91.421875 146.671875 91.445312 146.339844 91.496094 L 146.339844 94.089844 L 146.941406 94.089844 L 146.941406 93.0625 L 147.222656 93.0625 C 147.554688 93.0625 147.710938 93.1875 147.761719 93.457031 C 147.792969 93.675781 147.863281 93.890625 147.964844 94.089844 L 148.597656 94.089844 C 148.503906 93.886719 148.4375 93.675781 148.40625 93.457031 C 148.328125 93.109375 148.203125 92.90625 147.949219 92.828125 Z M 147.238281 92.636719 L 146.957031 92.636719 L 146.957031 91.894531 C 147.066406 91.871094 147.175781 91.859375 147.289062 91.863281 C 147.664062 91.863281 147.839844 92.019531 147.839844 92.257812 C 147.839844 92.527344 147.570312 92.636719 147.242188 92.636719 Z M 147.238281 92.636719 "/>
<path style=" stroke:none;fill-rule:nonzero;fill:rgb(0%,0%,0%);fill-opacity:1;" d="M 147.367188 90.15625 C 145.9375 90.175781 144.792969 91.351562 144.808594 92.785156 C 144.824219 94.21875 145.992188 95.371094 147.421875 95.359375 C 148.851562 95.347656 150.003906 94.179688 150 92.746094 C 149.988281 91.304688 148.808594 90.140625 147.367188 90.15625 Z M 147.367188 94.816406 C 146.519531 94.859375 145.738281 94.375 145.386719 93.605469 C 145.039062 92.832031 145.195312 91.921875 145.78125 91.3125 C 146.367188 90.699219 147.265625 90.507812 148.050781 90.828125 C 148.835938 91.148438 149.34375 91.914062 149.339844 92.761719 C 149.355469 93.300781 149.15625 93.820312 148.785156 94.207031 C 148.414062 94.597656 147.902344 94.816406 147.367188 94.816406 Z M 147.367188 94.816406 "/>
<path style=" stroke:none;fill-rule:nonzero;fill:rgb(0%,0%,0%);fill-opacity:1;" d="M 37.890625 40.472656 L 37.035156 40.472656 C 35.242188 40.402344 33.730469 41.792969 33.644531 43.589844 L 33.644531 46.003906 C 33.730469 47.796875 35.242188 49.191406 37.035156 49.117188 L 37.890625 49.117188 C 39.683594 49.191406 41.195312 47.800781 41.28125 46.003906 L 41.28125 43.589844 C 41.195312 41.792969 39.683594 40.402344 37.890625 40.472656 Z M 37.890625 40.472656 "/>
<path style=" stroke:none;fill-rule:nonzero;fill:rgb(0%,0%,0%);fill-opacity:1;" d="M 74 94.476562 C 74.703125 93.910156 75.113281 93.0625 75.125 92.160156 L 75.125 67.925781 L 75.15625 67.484375 C 75.992188 62.035156 80.519531 62.289062 80.566406 62.296875 C 84.640625 62.296875 85.984375 66.085938 86.132812 68.144531 C 86.132812 68.171875 86.136719 68.199219 86.136719 68.226562 L 86.136719 92.160156 C 86.277344 93.953125 87.792969 95.324219 89.589844 95.273438 L 90.441406 95.273438 C 92.234375 95.347656 93.75 93.957031 93.835938 92.160156 L 93.835938 66.625 C 93.824219 66.402344 93.796875 66.183594 93.757812 65.964844 C 93.066406 59.972656 88.183594 56.445312 88.136719 56.410156 C 84.265625 53.816406 80.308594 53.238281 76.386719 54.707031 C 74.617188 55.371094 73.003906 56.386719 71.640625 57.695312 C 71.425781 57.921875 71.070312 57.9375 70.839844 57.730469 C 62.160156 50.011719 54.105469 56.675781 53.761719 56.960938 C 53.542969 57.148438 53.21875 57.144531 53.007812 56.949219 C 50.273438 54.480469 47.585938 53.992188 45.546875 54.136719 C 45.214844 54.160156 44.929688 54.390625 44.832031 54.710938 C 44.738281 55.03125 44.847656 55.375 45.109375 55.582031 C 47.414062 57.429688 48.710938 60.257812 48.605469 63.214844 L 48.605469 91.15625 C 51.175781 90.765625 53.773438 90.617188 56.371094 90.710938 L 56.371094 68.761719 C 56.371094 66.660156 56.957031 65.015625 58.105469 63.875 C 59.140625 62.894531 60.5 62.332031 61.925781 62.292969 C 66.195312 62.292969 67.417969 66.429688 67.472656 68.617188 L 67.472656 92.160156 C 67.472656 92.328125 67.488281 92.5 67.519531 92.667969 Z M 74 94.476562 "/>
<path style=" stroke:none;fill-rule:nonzero;fill:rgb(0%,0%,0%);fill-opacity:1;" d="M 123.558594 57.816406 C 123.433594 57.671875 123.304688 57.542969 123.160156 57.417969 C 114.589844 50 106.648438 56.566406 106.316406 56.851562 C 106.09375 57.039062 105.769531 57.035156 105.558594 56.839844 C 102.773438 54.320312 100.058594 53.84375 98.023438 54.007812 C 97.699219 54.03125 97.421875 54.25 97.320312 54.5625 C 97.21875 54.875 97.3125 55.21875 97.5625 55.429688 C 98.445312 56.199219 99.214844 57.082031 99.851562 58.0625 C 101.398438 60.390625 101.164062 65.125 101.15625 65.214844 L 101.15625 101.84375 C 102.375 101.945312 103.621094 102 104.910156 102 C 106.363281 102 107.695312 101.960938 108.925781 101.886719 L 108.925781 94.789062 C 108.933594 94.601562 109.027344 94.433594 109.183594 94.332031 C 109.339844 94.230469 109.535156 94.210938 109.707031 94.28125 C 118.738281 97.867188 124.09375 90.695312 124.316406 90.386719 L 124.355469 90.34375 C 127.292969 87.050781 127.511719 82.652344 127.515625 82.605469 L 127.515625 67.421875 C 127.515625 62.722656 124.394531 58.785156 123.558594 57.816406 Z M 119.953125 80.84375 C 119.96875 82.046875 119.71875 83.234375 119.222656 84.324219 C 118.226562 86.464844 116.570312 87.589844 114.441406 87.589844 C 112.585938 87.523438 110.871094 86.585938 109.8125 85.058594 C 109.222656 84.144531 108.914062 83.082031 108.925781 81.996094 L 108.925781 70.636719 C 108.925781 70.617188 108.925781 70.597656 108.925781 70.578125 L 108.925781 68.898438 C 108.925781 66.796875 109.507812 65.15625 110.660156 64.015625 C 111.695312 63.03125 113.054688 62.464844 114.480469 62.433594 C 118.753906 62.433594 119.933594 66.570312 119.957031 68.761719 Z M 119.953125 80.84375 "/>
<path style=" stroke:none;fill-rule:nonzero;fill:rgb(0%,0%,0%);fill-opacity:1;" d="M 127.511719 95.09375 C 122.207031 99.914062 119.3125 103.695312 104.910156 103.695312 C 90.507812 103.695312 81.445312 97.0625 61.699219 93.03125 C 41.949219 88.996094 19.1875 104.722656 19.1875 104.722656 C 19.1875 104.722656 40.574219 94.726562 67.21875 102.945312 C 93.863281 111.167969 98.039062 116.320312 108.007812 116.320312 C 117.980469 116.320312 127.511719 111.859375 127.511719 95.09375 Z M 127.511719 95.09375 "/>
</g>
</svg>
