<?xml version="1.0" encoding="UTF-8"?>
<svg xmlns="http://www.w3.org/2000/svg" xmlns:xlink="http://www.w3.org/1999/xlink" width="150px" height="px" viewBox="0 0 150 59" version="1.1">
<g id="surface1">
<path style=" stroke:none;fill-rule:nonzero;fill:rgb(0%,0%,0%);fill-opacity:1;" d="M 23.132812 50.226562 C 22.285156 50.339844 21.425781 50.171875 20.683594 49.75 C 19.988281 49.324219 19.417969 48.722656 19.03125 48 C 18.585938 47.160156 18.285156 46.25 18.144531 45.304688 C 17.96875 44.210938 17.914062 43.101562 17.976562 41.996094 C 18.039062 40.863281 18.21875 39.742188 18.511719 38.644531 C 18.792969 37.542969 19.222656 36.488281 19.785156 35.5 C 20.304688 34.582031 20.988281 33.769531 21.800781 33.101562 C 22.597656 32.453125 23.570312 32.058594 24.59375 31.976562 C 25.488281 31.84375 26.398438 32.054688 27.144531 32.558594 C 27.832031 33.070312 28.371094 33.757812 28.699219 34.550781 C 29.089844 35.464844 29.339844 36.433594 29.441406 37.421875 C 29.5625 38.5 29.597656 39.585938 29.539062 40.667969 C 29.484375 41.84375 29.300781 43.011719 29 44.148438 C 28.726562 45.191406 28.304688 46.191406 27.75 47.113281 C 27.246094 47.953125 26.582031 48.679688 25.792969 49.253906 C 25.011719 49.8125 24.089844 50.148438 23.132812 50.226562 Z M 24.089844 37.164062 C 23.785156 37.195312 23.503906 37.347656 23.308594 37.585938 C 23.0625 37.875 22.871094 38.203125 22.734375 38.558594 C 22.5625 38.980469 22.441406 39.421875 22.359375 39.871094 C 22.273438 40.351562 22.21875 40.832031 22.195312 41.316406 C 22.164062 41.859375 22.171875 42.402344 22.214844 42.941406 C 22.25 43.425781 22.328125 43.910156 22.457031 44.382812 C 22.542969 44.746094 22.707031 45.085938 22.929688 45.382812 C 23.101562 45.617188 23.382812 45.742188 23.671875 45.707031 C 24.035156 45.664062 24.351562 45.445312 24.519531 45.117188 C 24.757812 44.71875 24.941406 44.285156 25.066406 43.835938 C 25.207031 43.335938 25.3125 42.832031 25.378906 42.316406 C 25.441406 41.800781 25.484375 41.371094 25.503906 41.027344 C 25.523438 40.585938 25.519531 40.140625 25.488281 39.699219 C 25.464844 39.269531 25.394531 38.84375 25.285156 38.425781 C 25.203125 38.085938 25.050781 37.765625 24.84375 37.480469 C 24.671875 37.246094 24.382812 37.121094 24.089844 37.164062 Z M 24.089844 37.164062 "/>
<path style=" stroke:none;fill-rule:nonzero;fill:rgb(0%,0%,0%);fill-opacity:1;" d="M 49.8125 37.304688 L 49.859375 36.429688 C 49.886719 35.914062 49.90625 35.222656 49.921875 34.378906 C 49.9375 33.546875 49.914062 32.636719 49.859375 31.675781 C 49.804688 30.726562 49.707031 29.75 49.566406 28.78125 C 49.445312 27.910156 49.238281 27.054688 48.9375 26.230469 C 48.71875 25.597656 48.367188 25.019531 47.910156 24.535156 C 47.546875 24.167969 47.035156 23.992188 46.527344 24.0625 C 46.171875 24.121094 45.84375 24.292969 45.589844 24.550781 C 45.167969 24.9375 44.789062 25.371094 44.457031 25.84375 C 44.042969 26.421875 43.664062 27.023438 43.324219 27.648438 C 42.953125 28.324219 42.609375 29.011719 42.300781 29.691406 C 41.992188 30.371094 41.695312 31.050781 41.429688 31.691406 C 41.164062 32.332031 40.9375 32.898438 40.769531 33.367188 C 40.703125 33.539062 40.535156 33.648438 40.351562 33.640625 C 40.167969 33.632812 40.011719 33.507812 39.964844 33.332031 C 39.847656 32.917969 39.703125 32.421875 39.523438 31.832031 C 39.34375 31.25 39.125 30.636719 38.882812 30.007812 C 38.640625 29.375 38.378906 28.738281 38.101562 28.113281 C 37.855469 27.542969 37.570312 26.992188 37.253906 26.457031 C 37.015625 26.050781 36.726562 25.675781 36.394531 25.34375 C 36.257812 25.1875 36.070312 25.082031 35.867188 25.046875 C 35.851562 25.046875 35.832031 25.046875 35.8125 25.046875 C 35.261719 25.113281 34.753906 25.382812 34.386719 25.804688 C 33.871094 26.371094 33.4375 27.007812 33.101562 27.703125 C 32.6875 28.550781 32.34375 29.429688 32.074219 30.332031 C 31.773438 31.3125 31.519531 32.300781 31.316406 33.269531 C 31.113281 34.242188 30.953125 35.179688 30.84375 36.054688 C 30.730469 36.925781 30.65625 37.664062 30.628906 38.234375 C 30.613281 38.5625 30.59375 38.988281 30.578125 39.507812 C 30.558594 40.015625 30.566406 40.574219 30.589844 41.171875 C 30.617188 41.765625 30.664062 42.382812 30.726562 43.003906 C 30.78125 43.578125 30.882812 44.148438 31.03125 44.707031 C 31.144531 45.164062 31.324219 45.597656 31.566406 46.003906 C 31.707031 46.253906 31.921875 46.453125 32.179688 46.582031 C 32.550781 46.453125 32.863281 46.195312 33.058594 45.855469 C 33.429688 45.277344 33.726562 44.65625 33.941406 44.007812 C 34.210938 43.226562 34.417969 42.425781 34.5625 41.613281 C 34.722656 40.75 34.855469 39.929688 34.949219 39.179688 C 35.046875 38.429688 35.113281 37.78125 35.152344 37.238281 C 35.1875 36.695312 35.210938 36.382812 35.214844 36.28125 C 35.226562 36.066406 35.25 35.707031 35.289062 35.207031 C 35.324219 34.714844 35.351562 34.265625 35.371094 33.859375 C 35.382812 33.640625 35.558594 33.464844 35.777344 33.457031 C 35.996094 33.449219 36.1875 33.609375 36.214844 33.824219 C 36.28125 34.351562 36.382812 34.996094 36.519531 35.796875 C 36.648438 36.574219 36.8125 37.410156 36.996094 38.289062 C 37.183594 39.164062 37.394531 40.046875 37.617188 40.890625 C 37.816406 41.675781 38.0625 42.445312 38.351562 43.195312 C 38.554688 43.753906 38.832031 44.285156 39.171875 44.769531 C 39.382812 45.058594 39.582031 45.195312 39.753906 45.179688 C 40.085938 45.097656 40.371094 44.890625 40.546875 44.601562 C 40.9375 44.070312 41.261719 43.496094 41.519531 42.890625 C 41.875 42.089844 42.183594 41.269531 42.449219 40.4375 C 42.742188 39.519531 43.03125 38.570312 43.289062 37.617188 C 43.550781 36.664062 43.785156 35.71875 43.984375 34.800781 C 44.1875 33.882812 44.367188 33.035156 44.523438 32.289062 C 44.5625 32.074219 44.757812 31.925781 44.976562 31.953125 C 45.1875 31.972656 45.355469 32.148438 45.359375 32.363281 C 45.382812 33.074219 45.417969 33.910156 45.464844 34.871094 C 45.507812 35.808594 45.582031 36.796875 45.675781 37.804688 C 45.769531 38.816406 45.882812 39.804688 46.015625 40.753906 C 46.144531 41.707031 46.304688 42.578125 46.484375 43.324219 C 46.613281 43.921875 46.8125 44.503906 47.070312 45.058594 C 47.152344 45.214844 47.308594 45.476562 47.46875 45.464844 C 47.695312 45.4375 47.90625 45.332031 48.066406 45.167969 C 48.300781 44.929688 48.492188 44.648438 48.621094 44.339844 C 48.800781 43.929688 48.949219 43.503906 49.0625 43.070312 C 49.191406 42.585938 49.296875 42.09375 49.378906 41.597656 C 49.464844 41.074219 49.539062 40.550781 49.605469 40.027344 C 49.667969 39.511719 49.71875 39.015625 49.75 38.550781 C 49.785156 38.089844 49.792969 37.667969 49.8125 37.304688 Z M 49.8125 37.304688 "/>
<path style=" stroke:none;fill-rule:nonzero;fill:rgb(0%,0%,0%);fill-opacity:1;" d="M 16.277344 55.570312 C 16.984375 54.855469 17.589844 54.042969 18.074219 53.15625 C 18.457031 52.5 18.636719 51.742188 18.585938 50.984375 C 18.570312 50.644531 18.421875 50.324219 18.167969 50.097656 C 18.007812 49.9375 17.773438 49.886719 17.5625 49.964844 C 17.058594 50.085938 16.574219 50.265625 16.113281 50.5 C 15.574219 50.773438 15.042969 51.066406 14.53125 51.375 C 13.972656 51.710938 13.394531 52.035156 12.816406 52.335938 C 12.183594 52.660156 11.511719 52.910156 10.816406 53.070312 C 9.707031 53.414062 8.5 53.183594 7.59375 52.449219 C 6.890625 51.835938 6.347656 51.058594 6.007812 50.191406 C 5.65625 49.320312 5.414062 48.410156 5.289062 47.480469 C 5.167969 46.605469 5.082031 45.828125 5.027344 45.179688 C 4.980469 44.664062 4.957031 43.992188 4.953125 43.1875 C 4.949219 42.382812 4.972656 41.511719 5.035156 40.59375 C 5.097656 39.675781 5.210938 38.71875 5.363281 37.765625 C 5.507812 36.828125 5.730469 35.910156 6.039062 35.011719 C 6.3125 34.1875 6.714844 33.40625 7.230469 32.707031 C 7.769531 31.957031 8.558594 31.429688 9.449219 31.214844 C 10.390625 30.90625 11.414062 31.285156 11.929688 32.128906 C 12.234375 32.691406 12.425781 33.308594 12.496094 33.945312 C 12.574219 34.519531 12.652344 35.136719 12.722656 35.789062 C 12.769531 36.246094 12.890625 36.695312 13.089844 37.109375 C 13.214844 37.367188 13.421875 37.574219 13.683594 37.691406 C 14.183594 37.820312 14.710938 37.796875 15.195312 37.617188 C 15.597656 37.535156 15.960938 37.332031 16.246094 37.035156 C 16.582031 36.675781 16.847656 36.257812 17.035156 35.800781 C 17.238281 35.296875 17.375 34.765625 17.441406 34.226562 C 17.507812 33.699219 17.523438 33.167969 17.484375 32.636719 C 17.375 31.457031 17.164062 30.289062 16.84375 29.144531 C 16.5625 28.074219 16.097656 27.054688 15.472656 26.140625 C 14.945312 25.359375 14.21875 24.730469 13.375 24.320312 C 12.953125 24.121094 12.496094 24.011719 12.03125 24 C 11.511719 23.984375 10.992188 24.042969 10.488281 24.167969 C 9.222656 24.460938 8.035156 25.042969 7.023438 25.863281 C 5.933594 26.753906 4.980469 27.804688 4.199219 28.976562 C 3.347656 30.253906 2.644531 31.621094 2.101562 33.058594 C 1.527344 34.558594 1.070312 36.105469 0.734375 37.679688 C 0.410156 39.195312 0.195312 40.730469 0.0820312 42.277344 C -0.0234375 43.621094 -0.0234375 44.964844 0.078125 46.308594 C 0.230469 48.101562 0.574219 49.871094 1.105469 51.59375 C 1.570312 53.148438 2.3125 54.605469 3.304688 55.890625 C 5.183594 58.425781 8.449219 59.496094 11.460938 58.5625 C 12.292969 58.339844 13.089844 57.988281 13.816406 57.519531 C 14.714844 56.976562 15.539062 56.320312 16.277344 55.570312 Z M 16.277344 55.570312 "/>
<path style=" stroke:none;fill-rule:nonzero;fill:rgb(0%,0%,0%);fill-opacity:1;" d="M 65.632812 28.167969 C 65.480469 29.257812 65.113281 30.304688 64.546875 31.25 C 63.953125 32.265625 63.21875 33.1875 62.359375 33.988281 C 61.503906 34.796875 60.535156 35.472656 59.488281 36.003906 C 58.511719 36.511719 57.441406 36.820312 56.347656 36.914062 C 56.28125 37.261719 56.210938 37.699219 56.132812 38.230469 C 56.054688 38.761719 55.949219 39.316406 55.816406 39.898438 C 55.683594 40.476562 55.523438 41.058594 55.34375 41.640625 C 55.175781 42.1875 54.949219 42.714844 54.667969 43.210938 C 54.429688 43.648438 54.109375 44.035156 53.730469 44.355469 C 53.378906 44.648438 52.9375 44.808594 52.480469 44.808594 C 52.007812 44.851562 51.542969 44.660156 51.238281 44.296875 C 50.949219 43.925781 50.753906 43.488281 50.667969 43.023438 C 50.566406 42.503906 50.519531 41.976562 50.535156 41.449219 C 50.546875 40.898438 50.566406 40.433594 50.597656 40.046875 C 50.628906 39.488281 50.675781 38.941406 50.734375 38.398438 C 50.796875 37.859375 50.863281 37.308594 50.933594 36.75 L 51.113281 35.347656 C 51.203125 34.664062 51.308594 33.882812 51.429688 33.003906 C 51.554688 32.125 51.6875 31.207031 51.832031 30.25 C 51.972656 29.292969 52.117188 28.40625 52.261719 27.582031 C 52.40625 26.761719 52.539062 26.0625 52.664062 25.480469 C 52.710938 25.125 52.816406 24.78125 52.984375 24.464844 C 53.007812 24.445312 53.070312 24.402344 53.179688 24.332031 C 53.285156 24.261719 53.398438 24.195312 53.53125 24.125 C 53.660156 24.054688 53.769531 23.988281 53.878906 23.929688 C 53.984375 23.871094 54.054688 23.832031 54.097656 23.808594 C 55.105469 23.273438 56.15625 22.820312 57.238281 22.453125 C 58.292969 22.082031 59.398438 21.878906 60.515625 21.847656 C 61.339844 21.816406 62.160156 21.984375 62.902344 22.339844 C 63.570312 22.664062 64.152344 23.136719 64.605469 23.726562 C 65.058594 24.328125 65.375 25.023438 65.53125 25.761719 C 65.707031 26.550781 65.738281 27.363281 65.632812 28.167969 Z M 60.457031 28.917969 C 60.515625 28.578125 60.460938 28.222656 60.308594 27.910156 C 60.132812 27.609375 59.789062 27.445312 59.441406 27.492188 C 59.046875 27.503906 58.660156 27.582031 58.292969 27.730469 C 57.902344 27.882812 57.539062 28.035156 57.207031 28.195312 C 57.175781 28.871094 57.148438 29.527344 57.113281 30.164062 C 57.078125 30.824219 56.996094 31.480469 56.875 32.132812 C 57.207031 31.972656 57.574219 31.789062 57.972656 31.578125 C 58.363281 31.375 58.738281 31.140625 59.089844 30.878906 C 59.429688 30.628906 59.734375 30.335938 59.996094 30.011719 C 60.246094 29.695312 60.40625 29.320312 60.457031 28.917969 Z M 60.457031 28.917969 "/>
<path style=" stroke:none;fill-rule:nonzero;fill:rgb(0%,0%,0%);fill-opacity:1;" d="M 74.09375 30.066406 C 74.078125 30.351562 73.992188 30.628906 73.84375 30.875 C 73.699219 31.121094 73.507812 31.339844 73.28125 31.515625 C 73.046875 31.703125 72.796875 31.859375 72.527344 31.988281 C 72.273438 32.113281 72.011719 32.214844 71.738281 32.289062 C 71.601562 34.050781 71.433594 35.753906 71.230469 37.394531 C 71.03125 39.039062 70.769531 40.742188 70.445312 42.503906 L 70.585938 42.492188 C 70.832031 42.472656 71.078125 42.476562 71.320312 42.511719 C 71.546875 42.539062 71.765625 42.617188 71.960938 42.734375 C 72.144531 42.84375 72.296875 43 72.402344 43.183594 C 72.515625 43.398438 72.558594 43.640625 72.535156 43.878906 C 72.515625 44.238281 72.375 44.578125 72.136719 44.84375 C 71.871094 45.148438 71.558594 45.402344 71.207031 45.597656 C 70.804688 45.828125 70.378906 46.019531 69.945312 46.171875 C 69.492188 46.332031 69.03125 46.46875 68.5625 46.582031 C 68.105469 46.6875 67.671875 46.777344 67.261719 46.84375 C 66.855469 46.910156 66.523438 46.953125 66.273438 46.976562 C 66.085938 46.992188 65.855469 47.003906 65.582031 47.011719 C 65.324219 47.019531 65.066406 46.996094 64.816406 46.9375 C 64.59375 46.890625 64.386719 46.789062 64.214844 46.640625 C 64.046875 46.488281 63.964844 46.261719 63.992188 46.035156 C 64.007812 45.722656 64.097656 45.414062 64.246094 45.140625 C 64.398438 44.867188 64.589844 44.617188 64.816406 44.402344 C 65.046875 44.183594 65.304688 43.996094 65.585938 43.847656 C 65.859375 43.707031 66.144531 43.585938 66.4375 43.496094 C 66.597656 42.632812 66.75 41.773438 66.898438 40.917969 C 67.042969 40.0625 67.15625 39.195312 67.242188 38.320312 C 67.324219 37.429688 67.410156 36.550781 67.492188 35.683594 C 67.578125 34.816406 67.660156 33.945312 67.746094 33.074219 C 67.632812 33.097656 67.53125 33.117188 67.4375 33.132812 C 67.34375 33.152344 67.257812 33.160156 67.179688 33.167969 C 66.945312 33.1875 66.710938 33.183594 66.476562 33.160156 C 66.238281 33.136719 66.007812 33.074219 65.789062 32.972656 C 65.585938 32.886719 65.40625 32.753906 65.261719 32.589844 C 65.117188 32.414062 65.050781 32.183594 65.078125 31.957031 C 65.117188 31.414062 65.390625 30.914062 65.828125 30.589844 C 66.320312 30.191406 66.875 29.878906 67.472656 29.660156 C 68.089844 29.421875 68.730469 29.238281 69.382812 29.109375 C 69.898438 29.003906 70.417969 28.925781 70.941406 28.871094 C 71.160156 28.851562 71.449219 28.84375 71.804688 28.84375 C 72.160156 28.84375 72.515625 28.882812 72.863281 28.960938 C 73.179688 29.027344 73.480469 29.152344 73.75 29.328125 C 73.996094 29.488281 74.128906 29.773438 74.09375 30.066406 Z M 74.09375 30.066406 "/>
<path style=" stroke:none;fill-rule:nonzero;fill:rgb(0%,0%,0%);fill-opacity:1;" d="M 88.1875 44.054688 C 88.601562 42.96875 88.945312 41.859375 89.210938 40.726562 C 89.511719 39.492188 89.769531 38.261719 89.980469 37.074219 C 90.1875 35.886719 90.355469 34.78125 90.480469 33.796875 C 90.609375 32.800781 90.695312 32.027344 90.742188 31.507812 C 90.777344 31.09375 90.816406 30.519531 90.863281 29.785156 C 90.90625 29.066406 90.925781 28.28125 90.925781 27.441406 C 90.921875 26.605469 90.894531 25.746094 90.835938 24.859375 C 90.792969 24.101562 90.6875 23.351562 90.519531 22.609375 C 90.410156 22.09375 90.207031 21.601562 89.921875 21.15625 C 89.777344 20.910156 89.503906 20.769531 89.21875 20.792969 C 88.945312 20.820312 88.695312 20.960938 88.539062 21.1875 C 88.242188 21.566406 88.007812 21.992188 87.835938 22.441406 C 87.601562 23.035156 87.417969 23.648438 87.285156 24.269531 C 87.128906 24.972656 86.996094 25.671875 86.886719 26.363281 C 86.78125 27.050781 86.695312 27.703125 86.632812 28.304688 C 86.566406 28.917969 86.519531 29.398438 86.492188 29.742188 C 86.421875 30.53125 86.355469 31.332031 86.292969 32.148438 C 86.234375 32.960938 86.175781 33.777344 86.125 34.589844 L 86.015625 35.859375 C 86.007812 35.949219 86 36.050781 86 36.15625 C 86 36.308594 85.980469 36.5625 85.949219 36.921875 L 85.601562 40.902344 L 84.710938 37.085938 C 84.617188 36.691406 84.546875 36.347656 84.488281 36.046875 C 84.4375 35.796875 84.390625 35.542969 84.347656 35.316406 C 84.320312 35.160156 84.300781 35.054688 84.289062 35.003906 L 84.265625 34.898438 C 84.078125 33.753906 83.878906 32.597656 83.664062 31.460938 C 83.449219 30.324219 83.230469 29.195312 83.003906 28.054688 C 82.878906 27.476562 82.726562 26.742188 82.550781 25.859375 C 82.390625 25.054688 82.164062 24.265625 81.875 23.5 C 81.636719 22.84375 81.304688 22.226562 80.894531 21.664062 C 80.683594 21.335938 80.328125 21.128906 79.9375 21.109375 C 79.898438 21.109375 79.859375 21.109375 79.820312 21.109375 C 79.269531 21.203125 78.789062 21.542969 78.523438 22.039062 C 77.960938 22.878906 77.503906 23.785156 77.171875 24.738281 C 76.722656 25.976562 76.351562 27.238281 76.058594 28.523438 C 75.734375 29.9375 75.445312 31.320312 75.207031 32.636719 C 74.964844 33.96875 74.777344 35.1875 74.644531 36.261719 C 74.515625 37.335938 74.417969 38.179688 74.371094 38.742188 C 74.339844 39.105469 74.304688 39.59375 74.269531 40.199219 C 74.238281 40.800781 74.222656 41.453125 74.226562 42.152344 C 74.234375 42.847656 74.265625 43.574219 74.324219 44.289062 C 74.367188 44.910156 74.46875 45.523438 74.625 46.125 C 74.726562 46.535156 74.902344 46.921875 75.148438 47.265625 C 75.289062 47.460938 75.527344 47.5625 75.769531 47.535156 L 75.792969 47.535156 C 75.964844 47.480469 76.125 47.433594 76.273438 47.402344 C 76.382812 47.367188 76.484375 47.3125 76.574219 47.242188 C 76.839844 47.03125 77.046875 46.757812 77.179688 46.445312 C 77.386719 46 77.554688 45.535156 77.679688 45.058594 C 77.816406 44.535156 77.933594 44 78.027344 43.472656 C 78.125 42.910156 78.210938 42.414062 78.289062 41.988281 C 78.492188 40.964844 78.644531 39.933594 78.742188 38.914062 C 78.84375 37.863281 78.945312 36.804688 79.039062 35.742188 L 79.503906 30.421875 L 80.375 34.558594 C 80.628906 35.757812 80.910156 36.980469 81.214844 38.1875 C 81.523438 39.398438 81.824219 40.621094 82.128906 41.863281 C 82.265625 42.414062 82.445312 43.039062 82.667969 43.714844 C 82.875 44.34375 83.136719 44.953125 83.457031 45.53125 C 83.722656 46.027344 84.070312 46.476562 84.484375 46.859375 C 84.800781 47.152344 85.226562 47.300781 85.660156 47.269531 C 86.1875 47.199219 86.652344 46.894531 86.929688 46.4375 C 87.453125 45.703125 87.875 44.902344 88.1875 44.054688 Z M 88.1875 44.054688 "/>
<path style=" stroke:none;fill-rule:nonzero;fill:rgb(0%,0%,0%);fill-opacity:1;" d="M 103.199219 30.230469 C 103.246094 30.597656 103.253906 30.964844 103.226562 31.328125 C 103.203125 31.71875 103.121094 32.105469 102.992188 32.476562 C 102.867188 32.839844 102.675781 33.175781 102.425781 33.46875 C 102.171875 33.765625 101.835938 33.980469 101.457031 34.082031 C 101.011719 34.257812 100.519531 34.277344 100.058594 34.144531 C 99.746094 34.015625 99.488281 33.785156 99.324219 33.488281 C 99.152344 33.171875 99.035156 32.824219 98.984375 32.46875 C 98.921875 32.089844 98.859375 31.734375 98.796875 31.402344 C 98.753906 31.125 98.65625 30.855469 98.515625 30.613281 C 98.386719 30.421875 98.167969 30.371094 97.859375 30.460938 C 97.503906 30.566406 97.199219 30.796875 97.003906 31.109375 C 96.761719 31.476562 96.578125 31.878906 96.464844 32.300781 C 96.320312 32.800781 96.222656 33.308594 96.167969 33.824219 C 96.109375 34.375 96.074219 34.917969 96.066406 35.445312 C 96.058594 35.976562 96.066406 36.472656 96.09375 36.929688 C 96.121094 37.394531 96.152344 37.765625 96.191406 38.050781 C 96.242188 38.421875 96.316406 38.859375 96.414062 39.367188 C 96.503906 39.851562 96.652344 40.320312 96.863281 40.769531 C 97.039062 41.164062 97.308594 41.511719 97.648438 41.78125 C 98.019531 42.039062 98.492188 42.09375 98.910156 41.929688 C 99.257812 41.828125 99.59375 41.6875 99.90625 41.503906 C 100.222656 41.320312 100.535156 41.121094 100.851562 40.914062 C 101.164062 40.703125 101.480469 40.503906 101.804688 40.316406 C 102.125 40.132812 102.460938 39.988281 102.8125 39.882812 C 103.175781 39.761719 103.574219 39.839844 103.867188 40.089844 C 104.167969 40.335938 104.363281 40.691406 104.40625 41.078125 C 104.480469 41.675781 104.375 42.277344 104.105469 42.8125 C 103.816406 43.414062 103.441406 43.976562 102.996094 44.476562 C 102.539062 44.992188 102.019531 45.449219 101.453125 45.835938 C 100.96875 46.179688 100.4375 46.445312 99.871094 46.625 C 98.808594 46.988281 97.660156 47.007812 96.585938 46.683594 C 95.65625 46.367188 94.824219 45.808594 94.179688 45.0625 C 93.492188 44.261719 92.957031 43.339844 92.605469 42.339844 C 92.21875 41.285156 91.949219 40.195312 91.796875 39.082031 C 91.691406 38.25 91.648438 37.410156 91.667969 36.574219 C 91.691406 35.617188 91.777344 34.664062 91.929688 33.722656 C 92.085938 32.738281 92.316406 31.769531 92.625 30.824219 C 92.921875 29.898438 93.320312 29.015625 93.816406 28.183594 C 94.285156 27.398438 94.863281 26.691406 95.539062 26.078125 C 96.199219 25.484375 96.984375 25.046875 97.835938 24.804688 C 98.554688 24.554688 99.339844 24.5625 100.054688 24.835938 C 100.6875 25.105469 101.238281 25.535156 101.65625 26.082031 C 102.109375 26.675781 102.453125 27.339844 102.679688 28.050781 C 102.917969 28.761719 103.09375 29.492188 103.199219 30.230469 Z M 103.199219 30.230469 "/>
<path style=" stroke:none;fill-rule:nonzero;fill:rgb(0%,0%,0%);fill-opacity:1;" d="M 121.640625 20.796875 C 121.660156 20.296875 121.644531 19.800781 121.589844 19.304688 C 121.539062 18.796875 121.414062 18.300781 121.21875 17.832031 C 121.054688 17.425781 120.792969 17.0625 120.460938 16.773438 C 120.125 16.515625 119.695312 16.414062 119.277344 16.484375 C 118.75 16.5 118.246094 16.6875 117.835938 17.015625 C 117.5 17.328125 117.246094 17.714844 117.09375 18.144531 C 116.917969 18.636719 116.808594 19.148438 116.765625 19.667969 C 116.710938 20.25 116.660156 20.800781 116.613281 21.316406 C 116.492188 22.398438 116.394531 23.476562 116.3125 24.527344 L 116.078125 27.777344 C 116.066406 27.960938 115.9375 28.117188 115.757812 28.160156 L 112.132812 29.035156 C 112 29.066406 111.859375 29.03125 111.757812 28.941406 C 111.652344 28.851562 111.601562 28.714844 111.613281 28.578125 L 111.882812 25.976562 C 111.972656 25.121094 112.039062 24.242188 112.085938 23.367188 L 112.203125 21.109375 C 112.246094 20.359375 112.1875 19.609375 112.03125 18.878906 C 111.914062 18.285156 111.628906 17.742188 111.203125 17.316406 C 110.871094 17.023438 110.441406 16.867188 110 16.871094 C 109.796875 16.863281 109.59375 16.867188 109.394531 16.890625 C 108.898438 16.902344 108.425781 17.109375 108.078125 17.464844 C 107.75 17.84375 107.503906 18.285156 107.355469 18.765625 C 107.191406 19.3125 107.085938 19.875 107.050781 20.445312 C 107.007812 21.078125 106.960938 21.628906 106.914062 22.101562 C 106.796875 23.515625 106.707031 24.945312 106.644531 26.347656 C 106.582031 27.75 106.492188 29.191406 106.375 30.597656 C 106.257812 31.945312 106.109375 33.304688 105.933594 34.640625 C 105.753906 35.953125 105.628906 37.292969 105.566406 38.617188 C 105.546875 39.007812 105.570312 39.398438 105.628906 39.789062 C 105.679688 40.152344 105.792969 40.503906 105.960938 40.832031 C 106.097656 41.105469 106.308594 41.335938 106.566406 41.496094 C 106.871094 41.660156 107.222656 41.71875 107.5625 41.664062 C 108.222656 41.628906 108.839844 41.324219 109.273438 40.824219 C 109.746094 40.265625 110.109375 39.625 110.351562 38.9375 C 110.617188 38.1875 110.808594 37.417969 110.921875 36.632812 C 111.042969 35.808594 111.152344 35.101562 111.25 34.511719 C 111.28125 34.335938 111.414062 34.199219 111.585938 34.164062 L 114.929688 33.515625 C 115.066406 33.488281 115.207031 33.53125 115.308594 33.628906 C 115.40625 33.726562 115.453125 33.867188 115.429688 34.003906 C 115.304688 34.734375 115.195312 35.480469 115.113281 36.222656 C 115.03125 36.964844 114.972656 37.699219 114.933594 38.425781 C 114.914062 38.808594 114.953125 39.191406 115.054688 39.558594 C 115.144531 39.886719 115.292969 40.191406 115.496094 40.464844 C 115.6875 40.710938 115.933594 40.910156 116.21875 41.035156 C 116.542969 41.175781 116.898438 41.226562 117.25 41.183594 C 117.675781 41.148438 118.078125 40.960938 118.378906 40.65625 C 118.75 40.277344 119.050781 39.839844 119.269531 39.355469 C 119.53125 38.785156 119.726562 38.1875 119.855469 37.574219 C 120.003906 36.902344 120.125 36.234375 120.222656 35.582031 C 120.324219 34.929688 120.398438 34.316406 120.449219 33.753906 C 120.503906 33.179688 120.546875 32.722656 120.589844 32.382812 C 120.816406 30.539062 121.027344 28.664062 121.210938 26.792969 C 121.398438 24.921875 121.539062 23.058594 121.632812 21.230469 Z M 121.640625 20.796875 "/>
<path style=" stroke:none;fill-rule:nonzero;fill:rgb(0%,0%,0%);fill-opacity:1;" d="M 133.734375 33.480469 C 133.710938 33.839844 133.601562 34.1875 133.414062 34.496094 C 133.054688 34.972656 132.605469 35.378906 132.09375 35.6875 C 131.363281 36.1875 130.605469 36.648438 129.824219 37.0625 C 128.996094 37.503906 128.203125 37.890625 127.433594 38.222656 C 126.898438 38.480469 126.328125 38.664062 125.742188 38.769531 C 125.445312 38.789062 125.148438 38.757812 124.859375 38.679688 C 124.519531 38.59375 124.183594 38.476562 123.859375 38.335938 C 123.542969 38.195312 123.242188 38.019531 122.964844 37.804688 C 122.734375 37.640625 122.542969 37.433594 122.394531 37.195312 C 122.300781 36.960938 122.246094 36.714844 122.230469 36.460938 C 122.1875 36.09375 122.15625 35.660156 122.136719 35.164062 C 122.117188 34.667969 122.109375 34.144531 122.109375 33.585938 C 122.101562 33.023438 122.097656 32.492188 122.097656 31.984375 C 122.097656 31.476562 122.101562 31.027344 122.109375 30.632812 C 122.121094 30.242188 122.128906 29.957031 122.140625 29.777344 C 122.171875 29.117188 122.234375 28.355469 122.324219 27.492188 C 122.414062 26.628906 122.542969 25.757812 122.714844 24.882812 C 122.878906 24.019531 123.105469 23.167969 123.394531 22.339844 C 123.644531 21.582031 124.011719 20.867188 124.480469 20.222656 C 124.703125 19.980469 124.96875 19.785156 125.261719 19.640625 C 125.699219 19.402344 126.15625 19.191406 126.621094 19.007812 C 127.140625 18.796875 127.699219 18.59375 128.296875 18.394531 C 128.898438 18.195312 129.472656 18.019531 130.027344 17.871094 C 130.578125 17.722656 131.082031 17.59375 131.53125 17.488281 C 131.871094 17.402344 132.214844 17.339844 132.5625 17.296875 C 132.820312 17.269531 133.078125 17.304688 133.320312 17.398438 C 133.546875 17.484375 133.753906 17.625 133.914062 17.808594 C 134.074219 17.988281 134.199219 18.199219 134.28125 18.425781 C 134.371094 18.667969 134.40625 18.921875 134.390625 19.175781 C 134.386719 19.382812 134.34375 19.585938 134.265625 19.773438 C 134.179688 19.96875 134.078125 20.160156 133.957031 20.335938 C 133.617188 20.710938 133.21875 21.027344 132.78125 21.273438 C 132.191406 21.652344 131.550781 22.027344 130.859375 22.402344 C 130.171875 22.777344 129.511719 23.121094 128.878906 23.429688 C 128.246094 23.738281 127.804688 23.960938 127.546875 24.089844 C 127.453125 24.507812 127.355469 24.929688 127.253906 25.359375 C 127.148438 25.785156 127.070312 26.214844 127.011719 26.648438 C 127.632812 26.28125 128.277344 25.953125 128.9375 25.664062 C 129.574219 25.371094 130.253906 25.179688 130.949219 25.101562 C 132.222656 24.980469 132.828125 25.546875 132.761719 26.796875 C 132.75 27.082031 132.675781 27.363281 132.546875 27.617188 C 132.417969 27.859375 132.253906 28.082031 132.054688 28.277344 C 131.855469 28.476562 131.628906 28.65625 131.386719 28.808594 C 131.136719 28.964844 130.890625 29.117188 130.652344 29.261719 C 130.058594 29.621094 129.441406 29.941406 128.804688 30.222656 C 128.167969 30.503906 127.527344 30.78125 126.886719 31.054688 C 126.84375 31.203125 126.800781 31.363281 126.757812 31.535156 C 126.714844 31.699219 126.6875 31.867188 126.675781 32.035156 C 126.664062 32.285156 126.667969 32.53125 126.691406 32.78125 C 126.714844 33.027344 126.738281 33.273438 126.761719 33.519531 C 126.980469 33.425781 127.332031 33.277344 127.816406 33.070312 C 128.296875 32.867188 128.804688 32.65625 129.335938 32.449219 C 129.863281 32.238281 130.371094 32.050781 130.863281 31.890625 C 131.214844 31.761719 131.578125 31.667969 131.949219 31.613281 C 132.203125 31.585938 132.457031 31.621094 132.695312 31.714844 C 132.910156 31.804688 133.105469 31.941406 133.261719 32.113281 C 133.582031 32.492188 133.75 32.976562 133.726562 33.46875 Z M 133.734375 33.480469 "/>
<path style=" stroke:none;fill-rule:nonzero;fill:rgb(0%,0%,0%);fill-opacity:1;" d="M 144.097656 17.710938 C 144.074219 18.117188 143.917969 18.507812 143.652344 18.816406 C 143.375 19.144531 143.046875 19.425781 142.683594 19.65625 C 142.351562 19.882812 142.007812 20.121094 141.652344 20.378906 C 141.304688 20.632812 140.976562 20.914062 140.671875 21.21875 C 140.378906 21.511719 140.128906 21.84375 139.925781 22.210938 C 139.726562 22.570312 139.613281 22.976562 139.597656 23.390625 C 139.570312 23.734375 139.644531 24.078125 139.8125 24.382812 C 139.984375 24.683594 140.191406 24.960938 140.425781 25.214844 C 140.671875 25.488281 140.941406 25.761719 141.238281 26.046875 C 141.542969 26.335938 141.8125 26.660156 142.046875 27.007812 C 142.300781 27.390625 142.5 27.808594 142.640625 28.246094 C 142.800781 28.785156 142.863281 29.347656 142.820312 29.90625 C 142.78125 30.4375 142.65625 30.957031 142.460938 31.449219 C 142.226562 32.0625 141.941406 32.65625 141.605469 33.222656 C 141.242188 33.84375 140.828125 34.433594 140.375 34.992188 C 139.925781 35.550781 139.433594 36.074219 138.90625 36.558594 C 138.417969 37.003906 137.878906 37.394531 137.304688 37.722656 C 136.820312 38.011719 136.28125 38.195312 135.722656 38.257812 C 135.214844 38.324219 134.703125 38.210938 134.265625 37.945312 C 133.839844 37.65625 133.617188 37.148438 133.691406 36.640625 C 133.710938 36.226562 133.835938 35.828125 134.046875 35.472656 C 134.273438 35.089844 134.53125 34.730469 134.824219 34.398438 C 135.140625 34.039062 135.476562 33.695312 135.828125 33.371094 C 136.195312 33.035156 136.527344 32.699219 136.832031 32.371094 C 137.121094 32.054688 137.382812 31.714844 137.605469 31.351562 C 137.816406 31.023438 137.933594 30.648438 137.957031 30.261719 C 137.976562 29.710938 137.808594 29.167969 137.488281 28.722656 C 137.148438 28.210938 136.769531 27.6875 136.351562 27.148438 C 135.9375 26.617188 135.558594 26.0625 135.21875 25.484375 C 134.890625 24.945312 134.730469 24.316406 134.761719 23.6875 C 134.832031 22.816406 135.085938 21.96875 135.507812 21.203125 C 135.972656 20.308594 136.542969 19.472656 137.214844 18.722656 C 137.882812 17.96875 138.644531 17.308594 139.488281 16.761719 C 140.210938 16.261719 141.046875 15.941406 141.917969 15.835938 C 142.480469 15.761719 143.050781 15.90625 143.503906 16.246094 C 143.941406 16.597656 144.164062 17.152344 144.097656 17.710938 Z M 144.097656 17.710938 "/>
<path style=" stroke:none;fill-rule:nonzero;fill:rgb(0%,0%,0%);fill-opacity:1;" d="M 69.242188 18.972656 L 69.40625 21.277344 C 69.421875 21.507812 69.292969 21.722656 69.085938 21.820312 L 66.472656 23.050781 C 66.28125 23.144531 66.15625 23.339844 66.152344 23.554688 C 66.152344 23.769531 66.273438 23.96875 66.46875 24.0625 L 67.96875 24.789062 C 68.105469 24.855469 68.210938 24.976562 68.257812 25.121094 C 68.304688 25.265625 68.289062 25.421875 68.21875 25.558594 L 67.414062 27.058594 C 67.296875 27.277344 67.335938 27.546875 67.515625 27.722656 C 67.691406 27.898438 67.964844 27.933594 68.179688 27.808594 L 70.253906 26.632812 C 70.371094 26.566406 70.507812 26.542969 70.636719 26.570312 L 73.480469 27.140625 C 73.703125 27.183594 73.925781 27.089844 74.054688 26.902344 C 74.179688 26.714844 74.179688 26.472656 74.054688 26.28125 L 73.003906 24.6875 C 72.882812 24.507812 72.878906 24.277344 72.992188 24.089844 L 74.78125 21.117188 C 74.894531 20.925781 74.886719 20.679688 74.75 20.496094 C 74.617188 20.316406 74.386719 20.230469 74.167969 20.285156 L 72.386719 20.722656 C 72.179688 20.773438 71.960938 20.699219 71.824219 20.535156 L 70.230469 18.582031 C 70.078125 18.394531 69.820312 18.328125 69.59375 18.417969 C 69.371094 18.507812 69.226562 18.730469 69.242188 18.972656 Z M 69.242188 18.972656 "/>
<path style=" stroke:none;fill-rule:nonzero;fill:rgb(0%,0%,0%);fill-opacity:1;" d="M 151.308594 16.195312 C 151.308594 16.710938 151.035156 17.1875 150.59375 17.449219 C 150.152344 17.707031 149.601562 17.707031 149.160156 17.449219 C 148.773438 17.222656 148.511719 16.828125 148.453125 16.382812 C 148.394531 15.9375 148.546875 15.488281 148.867188 15.167969 C 149 15.039062 149.15625 14.933594 149.328125 14.859375 C 149.679688 14.710938 150.078125 14.710938 150.429688 14.859375 C 150.964844 15.082031 151.316406 15.609375 151.3125 16.191406 Z M 151.03125 16.195312 C 151.03125 16.039062 151 15.882812 150.941406 15.742188 C 150.882812 15.601562 150.796875 15.476562 150.695312 15.371094 C 150.476562 15.15625 150.183594 15.03125 149.878906 15.03125 C 149.726562 15.03125 149.578125 15.0625 149.4375 15.121094 C 149.300781 15.179688 149.175781 15.265625 149.070312 15.371094 C 148.816406 15.628906 148.695312 15.988281 148.738281 16.347656 C 148.785156 16.710938 148.992188 17.027344 149.304688 17.214844 C 149.660156 17.421875 150.105469 17.421875 150.460938 17.214844 C 150.816406 17 151.035156 16.617188 151.03125 16.199219 Z M 150.550781 16.972656 L 150.101562 16.972656 C 150.015625 16.800781 149.945312 16.660156 149.882812 16.5625 C 149.847656 16.492188 149.800781 16.429688 149.742188 16.378906 C 149.699219 16.359375 149.652344 16.351562 149.605469 16.351562 L 149.605469 16.972656 L 149.226562 16.972656 L 149.226562 15.425781 L 149.910156 15.425781 C 150.054688 15.417969 150.195312 15.453125 150.316406 15.53125 C 150.417969 15.609375 150.476562 15.734375 150.464844 15.863281 C 150.472656 15.980469 150.425781 16.09375 150.335938 16.164062 C 150.25 16.230469 150.152344 16.273438 150.046875 16.292969 C 150.121094 16.324219 150.1875 16.375 150.242188 16.441406 C 150.300781 16.523438 150.359375 16.617188 150.40625 16.710938 Z M 150.074219 15.886719 C 150.078125 15.824219 150.046875 15.769531 149.996094 15.738281 C 149.933594 15.703125 149.859375 15.6875 149.789062 15.691406 L 149.605469 15.691406 L 149.605469 16.078125 L 149.773438 16.078125 C 149.847656 16.082031 149.925781 16.066406 149.992188 16.035156 C 150.046875 16.003906 150.078125 15.945312 150.074219 15.886719 Z M 150.074219 15.886719 "/>
</g>
</svg>
